<?xml version="1.0" encoding="utf-8"?>
<!-- Generator: Adobe Illustrator 22.1.0, SVG Export Plug-In . SVG Version: 6.00 Build 0)  -->
<svg version="1.1" id="Слой_1" xmlns="http://www.w3.org/2000/svg" xmlns:xlink="http://www.w3.org/1999/xlink" x="0px" y="0px"
	 viewBox="0 0 21 21" style="enable-background:new 0 0 21 21;" xml:space="preserve">
<style type="text/css">
	.st0{fill:#FFFFFF;}
	.st1{fill:#757578;}
	.st2{fill:#FFFFFF;stroke:#757578;stroke-linecap:round;stroke-linejoin:round;stroke-miterlimit:10;}
</style>
<g>
	<rect x="0.5" y="0.5" class="st0" width="20" height="16"/>
	<path class="st1" d="M20,1v15H1V1H20 M21,0H0v17h21V0L21,0z"/>
</g>
<g>
	<rect x="0.5" y="18.5" class="st0" width="20" height="2"/>
	<path class="st1" d="M20,19v1H1v-1H20 M21,18H0v3h21V18L21,18z"/>
</g>
<g>
	<path class="st2" d="M12.8,14.8H8.2c-3.1,0-5.6-2.5-5.6-5.6h15.8C18.4,12.3,15.9,14.8,12.8,14.8z"/>
	<path class="st2" d="M18.4,9.2h-7.2v-7h0.2C15.3,2.2,18.4,5.3,18.4,9.2L18.4,9.2z"/>
	<line class="st2" x1="11.2" y1="9.2" x2="15" y2="2.6"/>
	<line class="st2" x1="11.2" y1="9.2" x2="17.8" y2="5.4"/>
</g>
</svg>
